<svg t="1760772098424" class="icon" viewBox="0 0 1024 1024" version="1.1" xmlns="http://www.w3.org/2000/svg" p-id="4629" id="mx_n_1760772098424" width="200" height="200"><path d="M512 0c282.771 0 512 229.229 512 512s-229.229 512-512 512S0 794.771 0 512 229.229 0 512 0z m279.552 675.584l-210.24-7.168-1.6 0.448a1.984 1.984 0 0 0-0.896 1.024s-0.256 1.984 0.832 2.816l21.568 15.104c23.936 16.32 58.112 38.144 80.896 47.232l7.936 2.816s4.48 1.408 12.16 1.728h4.032c19.648-0.64 54.016-10.496 85.312-64z m-348.672-7.296l-210.496 7.296c22.784 40.448 61.184 71.616 101.248 62.272 27.328-7.04 89.92-50.432 110.4-65.152 1.664-1.408 1.088-2.56 1.088-2.56-0.384-1.28-1.472-1.728-2.24-1.92v0.064zM176.64 491.456c-3.2 9.792-4.8 19.2-5.504 28.16l-0.448 10.688c0 24.192 7.232 42.688 10.176 49.088l1.152 2.432c18.24 38.272 49.92 55.168 61.824 60.416l4.736 1.92c11.072 4.672 22.144 6.848 29.824 7.872l10.048 0.896c0.64 0.064 6.656 0.192 15.936 0.192l141.632-0.192c1.408 0 2.24-1.472 2.24-1.472v-1.664l-0.384-1.024-19.968-13.184C332.224 574.08 176.64 491.456 176.64 491.456z m670.72-0.512l-89.792 49.216c-58.112 32.512-131.84 75.008-180.992 107.904l-0.896 1.472a3.072 3.072 0 0 0 0 1.664l0.96 1.28c0.32 0.256 0.64 0.448 1.024 0.448l161.28-0.64s12.8-0.384 29.632-5.888l8.448-3.008c8.192-3.136 40.256-17.408 60.928-54.592l5.504-11.072 2.368-6.016c5.12-14.272 13.184-45.696 1.472-80.768h0.064zM275.008 317.632l-8.32 8.64c-14.912 16.576-45.056 54.72-47.168 94.4v9.92c1.6 29.632 17.6 50.816 27.328 61.056l7.36 6.912c40.512 39.424 125.696 86.72 175.488 112.64l32.192 16.192s1.664 0.896 2.816-0.256l0.576-1.152v-1.088c-80.768-175.36-190.272-307.264-190.272-307.264z m482.048 8.448l-8.192-8.448-17.344 21.952c-34.048 44.48-111.616 152.128-172.416 283.84 0 0-0.832 2.304 0.64 3.712l1.088 0.256h1.728l32.32-16.512c46.272-24.128 122.56-66.432 165.44-103.552l13.76-12.544c8.96-8.96 28.608-32 29.952-64.448 3.008-44.608-30.848-86.784-46.976-104.256z m-294.912-98.56a327.36 327.36 0 0 0-33.856 6.528c-41.408 10.56-71.04 46.72-73.088 89.216v11.648c0.832 16.96 4.544 29.696 4.544 29.696 18.752 82.112 109.824 216.64 129.408 244.992 0.96 0.896 1.92 0.96 2.432 0.896 1.152-0.384 1.728-1.024 1.92-1.728l0.192-1.152c30.144-300.16-31.552-380.032-31.552-380.032v-0.064z m99.52 0l-4.032 6.656c-13.312 24.32-53.12 120.832-27.776 373.696 0.192 1.28 0.896 1.92 1.28 2.112 1.728 0.704 2.56 0.128 2.944-0.256l18.624-27.392c32-48.32 88.96-140.032 107.968-205.76l3.776-14.592c1.856-8.384 7.04-35.52 1.792-57.28l-2.56-8.576c-3.456-9.92-20.16-50.432-68.736-62.336l-15.232-3.264a319.936 319.936 0 0 0-18.048-2.944v-0.064z" p-id="4630"></path></svg>