<?xml version="1.0" standalone="no"?><!DOCTYPE svg PUBLIC "-//W3C//DTD SVG 1.1//EN" "http://www.w3.org/Graphics/SVG/1.1/DTD/svg11.dtd"><svg t="1760772423883" class="icon" viewBox="0 0 1024 1024" version="1.1" xmlns="http://www.w3.org/2000/svg" p-id="4701" xmlns:xlink="http://www.w3.org/1999/xlink" width="200" height="200"><path d="M227.6096 312.8832s-63.0016 60.1088-66.4576 123.648v11.904c2.7392 51.328 41.6512 81.5616 41.6512 81.5616 62.464 60.8256 213.632 137.3184 249.1648 154.624 0 0 2.048 1.0496 3.3792-0.3584l0.7168-1.3312v-1.3312c-96.9728-210.3808-228.3264-368.7936-228.3264-368.7936l-0.128 0.0768z m204.16 423.424c-0.6912-2.7392-3.3792-2.7392-3.3792-2.7392L176.4864 742.4c27.264 48.5888 73.3696 85.9136 121.472 74.752 32.768-8.5248 107.904-60.4928 132.48-78.208 2.048-1.6896 1.3312-3.0208 1.3312-3.0208v0.3584z m2.7648-26.5216c-110.592-74.4448-324.992-188.288-324.992-188.288A152.6016 152.6016 0 0 0 102.4 565.7088v2.3296c0 36.4288 13.6448 61.8752 13.6448 61.8752a149.1712 149.1712 0 0 0 79.872 74.752 142.08 142.08 0 0 0 47.7952 10.5472c4.096 0.6912 150.144 0 189.056 0 1.7664 0 2.7648-1.7408 2.7648-1.7408v-1.9968c0-1.024-1.024-1.7408-1.024-1.7408v0.0512zM411.648 212.608a116.352 116.352 0 0 0-87.7824 107.008v14.0032c1.0752 20.3776 5.504 35.6352 5.504 35.6352 22.528 98.5856 131.712 259.968 155.3152 293.9904 1.7408 1.6896 3.3792 0.9984 3.3792 0.9984a3.3792 3.3792 0 0 0 2.048-3.3792C526.336 300.6464 452.352 204.8 452.352 204.8c-10.9568 0.6912-40.6272 7.808-40.6272 7.808h-0.0512z m283.264 77.1328s-16.7424-61.184-83.2512-77.4912c0 0-19.5072-4.7104-39.9872-7.4496 0 0-74.368 95.488-38.1952 456.3968 0.3584 2.3296 2.048 2.688 2.048 2.688a2.5088 2.5088 0 0 0 3.3792-0.9984c24.576-35.0208 133.12-195.7376 155.3152-293.632 0 0 12.288-47.5904 0.6912-79.5136z m-99.6352 444.16s-2.4064 0-3.1232 1.7664c0 0-0.2816 2.304 1.0752 3.328 23.8592 17.3312 97.2288 67.968 132.4032 78.1568 0 0 5.4528 1.7664 14.6432 2.048h4.864c23.5008-0.6912 64.8192-12.5952 102.4-76.8l-252.6208-8.4992h0.3584zM862.464 448.1024c4.8128-69.9904-66.2272-134.8864-66.2272-135.2192 0 0-131.3536 158.336-227.6096 367.0272 0 0-1.0752 2.6624 0.6912 4.352l1.3568 0.3584h2.048c36.1472-17.9968 186.368-94.1568 248.448-154.2656 0 0 39.2448-31.6416 41.2928-82.2528z m51.9168 72.7552s-214.3488 114.4832-324.9408 188.5696c0 0-1.7408 1.3568-1.024 3.7376 0 0 1.024 2.048 2.3808 2.048 39.6032 0 189.7472 0 193.5104-0.7168 0 0 19.456-0.64 43.3408-9.8304 0 0 53.248-16.9472 80.9472-77.1328 0 0 24.832-49.28 5.7856-106.6752z" fill="#1B1C1F" p-id="4702"></path></svg>