<svg id="vector"
     xmlns="http://www.w3.org/2000/svg"
     width="1024"
     height="1024"
     viewBox="0 0 1024 1024">
    <path
        fill="#FFFFFF"
        d="M736 128c-65.952 0-128.576 25.024-176.384 70.464-4.576 4.32-28.672 28.736-47.328 47.68L464.96 199.04C417.12 153.216 354.272 128 288 128c-141.152 0-256 114.848-256 256 0 82.432 41.184 144.288 76.48 182.496l316.896 320.128C450.464 911.68 478.304 928 512 928c33.696 0 61.568-16.32 86.752-41.504l316.736-320 2.208-2.464C955.904 516.384 992 471.392 992 384 992 242.848 877.152 128 736 128z"
        id="path_0"/>
</svg>