<svg id="vector"
     xmlns="http://www.w3.org/2000/svg"
     width="1024"
     height="1024"
     viewBox="0 0 1024 1024">
    <path
        fill="#FFFFFF"
        d="M953.504 908.256l-152.608-163.296c61.856-74.496 95.872-167.36 95.872-265.12 0-229.344-186.624-415.968-416.032-415.968-229.344 0-415.968 186.592-415.968 415.968s186.624 415.968 416 415.968c60.096-0.032 118.048-12.576 172.224-37.248 16.096-7.328 23.2-26.304 15.872-42.368-7.328-16.128-26.4-23.264-42.368-15.872-45.856 20.864-94.88 31.456-145.76 31.488-194.08 0-351.968-157.888-351.968-351.968 0-194.048 157.888-351.968 351.968-351.968 194.112 0 352.032 157.888 352.032 351.968 0 91.36-34.848 177.92-98.08 243.744-12.256 12.736-11.84 32.992 0.864 45.248 0.96 0.928 2.208 1.28 3.296 2.08 0.864 1.28 1.312 2.752 2.4 3.904l165.504 177.088c6.272 6.752 14.816 10.144 23.36 10.144 7.84 0 15.68-2.848 21.856-8.64C964.864 941.408 965.568 921.152 953.504 908.256z"
        id="path_0"/>
</svg>