<svg id="vector"
     xmlns="http://www.w3.org/2000/svg"
     width="1024"
     height="1024"
     viewBox="0 0 1024 1024">
    <path
        fill="#000000"
        d="M928.768 87.232c-0.032-7.456-1.216-13.696-2.848-19.328-31.328-8.288-72.128 1.248-106.624 17.984-7.072 3.424-23.84 13.632-48.672 28.736-10.272 6.272-19.328 11.776-23.328 14.048-0.384 0.224-0.608 0.64-0.96 0.864C678.56 88.256 599.296 64 514.272 64c-247.04 0-448 200.96-448 448 0 82.816 22.976 160.192 62.304 226.784-46.464 71.616-69.504 123.328-63.488 158.368 1.248 7.168 13.6 8.32 20.384 8.32 138.432 0 454.848-303.776 494.208-342.496C753.504 392 928.864 182.976 928.768 87.232zM306.272 610.688c-44.096 0-80-35.872-80-80 0-44.096 35.904-80 80-80s80 35.904 80 80C386.272 574.816 350.368 610.688 306.272 610.688zM447.072 386.688c-52.928 0-96-43.072-96-96s43.072-96 96-96 96 43.072 96 96S500 386.688 447.072 386.688z"
        id="path_0"/>
    <path
        fill="#000000"
        d="M895.904 278.56c-67.104 99.648-172.608 219.296-277.856 322.784-28.64 28.192-202.272 196.448-348.096 286.112 0.128-0.096 0.224-0.16 0.352-0.224C340.576 933.088 424.288 960 514.272 960c247.04 0 448-200.96 448-448C962.24 426.4 937.728 346.656 895.904 278.56zM640.032 800c-35.296 0-64-28.704-64-64s28.704-64 64-64 64 28.704 64 64S675.328 800 640.032 800z"
        id="path_1"/>
</svg>