<svg id="vector"
     xmlns="http://www.w3.org/2000/svg"
     width="1024"
     height="1024"
     viewBox="0 0 1024 1024">
    <path
        fill="#000000"
        d="M544 288c0-52.928-43.072-96-96-96s-96 43.072-96 96 43.072 96 96 96S544 340.928 544 288zM416 288c0-17.632 14.368-32 32-32s32 14.368 32 32-14.368 32-32 32S416 305.632 416 288z"
        id="path_0"/>
    <path
        fill="#000000"
        d="M304 448C259.904 448 224 483.904 224 528 224 572.128 259.904 608 304 608s80-35.872 80-80C384 483.904 348.096 448 304 448zM304 544C295.168 544 288 536.832 288 528S295.168 512 304 512s16 7.168 16 16S312.832 544 304 544z"
        id="path_1"/>
    <path
        fill="#000000"
        d="M640 736m-64 0a2 2 0 1 0 128 0 2 2 0 1 0-128 0Z"
        id="path_2"/>
    <path
        fill="#000000"
        d="M887.84 268.672c39.744-60.672 64.256-113.184 64.224-148.96 0-22.976-9.312-36.928-17.12-44.576-38.08-37.376-110.016-3.2-160.768 25.664-15.328 8.736-20.704 28.288-11.968 43.648 8.736 15.36 28.32 20.704 43.648 11.968 49.408-28.16 73.248-33.088 82.496-33.696-1.504 41.376-95.328 202.432-330.208 433.504-226.368 222.72-398.656 324.672-442.24 325.376 0.96-11.36 8.768-44.448 58.528-118.688 1.312-1.888 2.4-3.968 3.232-6.144l2.304-5.92c0.256-0.64 0.288-1.344 0.512-2.016 8.8-10.24 10.816-25.088 3.392-37.248C147.328 651.616 128 582.592 128 512 128 300.256 300.256 128 512 128c59.296 0 116.096 13.12 168.864 39.04 15.936 7.776 35.04 1.184 42.816-14.656 7.776-15.84 1.248-35.008-14.624-42.816C647.424 79.328 581.12 64 512 64 264.96 64 64 264.96 64 512c0 76.064 19.488 150.496 56.064 216.64-0.192 0.576-0.64 1.056-0.8 1.632C51.168 832.608 35.2 895.68 68.928 928.768c11.008 10.784 25.632 15.584 43.072 15.584 39.328 0 92.864-24.928 150.08-60.896C336.096 933.408 421.952 960 512 960c247.04 0 448-200.96 448-448C960 424.864 934.912 341.248 887.84 268.672zM512 896c-68.288 0-133.728-17.888-191.84-51.552 128.288-92.256 258.432-218.56 282.848-242.624 89.152-87.712 178.56-187.04 244.64-275.968C879.2 382.592 896 446.112 896 512 896 723.744 723.744 896 512 896z"
        id="path_3"/>
</svg>